<?xml version="1.0" standalone="no"?>
<!DOCTYPE svg PUBLIC "-//W3C//DTD SVG 20010904//EN"
 "http://www.w3.org/TR/2001/REC-SVG-20010904/DTD/svg10.dtd">
<svg version="1.0" xmlns="http://www.w3.org/2000/svg"
 width="210.000000pt" height="210.000000pt" viewBox="0 0 210.000000 210.000000"
 preserveAspectRatio="xMidYMid meet">
<metadata>
Created by potrace 1.11, written by Peter Selinger 2001-2013
</metadata>
<g transform="translate(0.000000,210.000000) scale(0.100000,-0.100000)"
fill="#000000" stroke="none">
<path d="M755 1646 c-28 -28 -32 -62 -10 -93 14 -20 9 -37 -80 -245 -52 -123
-98 -229 -103 -237 -4 -8 -19 -16 -33 -18 -48 -7 -76 -75 -46 -113 15 -19 437
-200 467 -200 28 0 69 45 66 73 -2 12 -9 32 -16 43 -14 22 -7 44 47 160 l14
31 187 -79 c103 -43 196 -82 207 -87 69 -31 96 -42 145 -61 66 -26 119 -48
142 -61 32 -16 68 -10 93 17 27 29 25 68 -3 95 -9 9 -170 80 -357 159 -187 78
-344 145 -348 149 -4 4 6 41 24 82 29 69 54 104 68 94 14 -8 52 33 57 61 7 44
-17 65 -121 109 -83 34 -129 53 -180 76 -179 77 -186 79 -220 45z"/>
<path d="M373 933 c-13 -8 -23 -21 -23 -27 0 -11 102 -78 108 -71 4 4 -51 115
-58 114 -3 0 -15 -7 -27 -16z"/>
<path d="M266 866 c-3 -13 -8 -31 -11 -39 -5 -11 8 -14 67 -16 l73 -1 -35 22
c-19 12 -37 25 -40 29 -3 3 -15 11 -26 17 -19 10 -23 9 -28 -12z"/>
<path d="M1125 794 l-40 -34 50 6 c28 4 51 8 53 9 2 2 -2 15 -10 29 l-13 25
-40 -35z"/>
<path d="M1085 719 l-30 -6 45 -20 c47 -21 60 -17 60 19 0 19 -15 20 -75 7z"/>
<path d="M283 560 c-15 -4 -18 -15 -18 -70 l1 -65 715 -3 715 -2 1 65 c1 37
-4 68 -10 72 -12 7 -1376 11 -1404 3z"/>
</g>
</svg>
